<?xml version="1.0" encoding="UTF-8"?>
<svg id="Layer_1" data-name="Layer 1" xmlns="http://www.w3.org/2000/svg" viewBox="0 0 426.69 161.27" xmlns:c2pa="http://c2pa.org/manifest"><metadata><c2pa:manifest>AAAWgmp1bWIAAAAeanVtZGMycGEAEQAQgAAAqgA4m3EDYzJwYQAAABZcanVtYgAAAEdqdW1kYzJtYQARABCAAACqADibcQN1cm46YzJwYToxZTY1ZTNiOC04NmU1LTQ5MWUtYjI5Yi03MzBjMmZmYjZiNDkAAAADl2p1bWIAAAApanVtZGMyYXMAEQAQgAAAqgA4m3EDYzJwYS5hc3NlcnRpb25zAAAAALxqdW1iAAAARGp1bWRjYm9yABEAEIAAAKoAOJtxE2MycGEuaW5ncmVkaWVudC52MwAAAAAYYzJzaKoVWlQbdkCv1Lgx33tKvYUAAABwY2JvcqNpZGM6Zm9ybWF0bWltYWdlL3N2Zyt4bWxqaW5zdGFuY2VJRHgseG1wOmlpZDoxYzIzNGM4Ny1mNWQyLTQxMGMtYTQ1NS03MjE4NjE1NmU4ZWZscmVsYXRpb25zaGlwaHBhcmVudE9mAAAB4mp1bWIAAABBanVtZGNib3IAEQAQgAAAqgA4m3ETYzJwYS5hY3Rpb25zLnYyAAAAABhjMnNocnpe1lZYN4LebxNlc0u+kgAAAZljYm9yomdhY3Rpb25zgqJmYWN0aW9ua2MycGEub3BlbmVkanBhcmFtZXRlcnOha2luZ3JlZGllbnRzgaJjdXJseC1zZWxmI2p1bWJmPWMycGEuYXNzZXJ0aW9ucy9jMnBhLmluZ3JlZGllbnQudjNkaGFzaFggVXpl1DOrlf2CSL0ZDglF2mLa9cWWw+qAdPCHBqETrFOkZmFjdGlvbngdY29tLmFudGhyb3BpYy5jbGF1ZGUucHJvdmlkZWRqcGFyYW1ldGVyc6F4H2NvbS5hbnRocm9waWMub3JpZ2luLWNvbmZpZGVuY2VndW5rbm93bmtkZXNjcmlwdGlvbnhmQ2xhdWRlIHByb3ZpZGVkIHRoaXMgZmlsZSBhdCB0aGUgcmVxdWVzdCBvZiBhIHVzZXIgYW5kIG1heSBoYXZlIGNyZWF0ZWQgb3IgbW9kaWZpZWQgdGhlIGZpbGUgY29udGVudHMubXNvZnR3YXJlQWdlbnShZG5hbWVmQ2xhdWRlcmFsbEFjdGlvbnNJbmNsdWRlZPUAAADIanVtYgAAAEBqdW1kY2JvcgARABCAAACqADibcRNjMnBhLmhhc2guZGF0YQAAAAAYYzJzaGe1YS2gwOaJ6GaJrS+H/QgAAACAY2JvcqVjYWxnZnNoYTI1NmNwYWRNAAAAAAAAAAAAAAAAAGRoYXNoWCBMLaRIQAO+TFXcbgItNg9Zuc1/uPwKLGPeCwuFByU9vmRuYW1lbmp1bWJmIG1hbmlmZXN0amV4Y2x1c2lvbnOBomVzdGFydBjLZmxlbmd0aBkeBAAAAj5qdW1iAAAAJ2p1bWRjMmNsABEAEIAAAKoAOJtxA2MycGEuY2xhaW0udjIAAAACD2Nib3KlY2FsZ2ZzaGEyNTZpc2lnbmF0dXJleE1zZWxmI2p1bWJmPS9jMnBhL3VybjpjMnBhOjFlNjVlM2I4LTg2ZTUtNDkxZS1iMjliLTczMGMyZmZiNmI0OS9jMnBhLnNpZ25hdHVyZWppbnN0YW5jZUlEeCx4bXA6aWlkOmMyMmQxZTBjLWRkZjUtNDczZi04ZDczLTkzYjRmNTAxODAyNnJjcmVhdGVkX2Fzc2VydGlvbnODomN1cmx4LXNlbGYjanVtYmY9YzJwYS5hc3NlcnRpb25zL2MycGEuaW5ncmVkaWVudC52M2RoYXNoWCBVemXUM6uV/YJIvRkOCUXaYtr1xZbD6oB08IcGoROsU6JjdXJseCpzZWxmI2p1bWJmPWMycGEuYXNzZXJ0aW9ucy9jMnBhLmFjdGlvbnMudjJkaGFzaFggSSgoo5a2uW+IGrOGA8UGcvk3gRP3DlrG06qy7UYIjXaiY3VybHgpc2VsZiNqdW1iZj1jMnBhLmFzc2VydGlvbnMvYzJwYS5oYXNoLmRhdGFkaGFzaFggZxh83TfPUw6C/Kr03/yv5dhTG2cr2OVHm+CY9VOuMAR0Y2xhaW1fZ2VuZXJhdG9yX2luZm+jZG5hbWVvQW50aHJvcGljIEZpbGVzZ3ZlcnNpb25lMS4wLjBrc3BlY1ZlcnNpb25lMi40LjAAABA4anVtYgAAAChqdW1kYzJjcwARABCAAACqADibcQNjMnBhLnNpZ25hdHVyZQAAABAIY2JvctKEWQISogEmGCFZAgowggIGMIIBjaADAgECAhRA5aAK7sI50L64g/oGQgU9Z1UTADAKBggqhkjOPQQDAzBJMRcwFQYDVQQKEw5BbnRocm9waWMsIFBCQzEuMCwGA1UEAxMlQW50aHJvcGljIENvbnRlbnQgQ3JlZGVudGlhbHMgUm9vdCBDQTAeFw0yNjA4MDcxODQzNTZaFw0yODA4MDYxOTQzNTZaMEQxFzAVBgNVBAoTDkFudGhyb3BpYywgUEJDMSkwJwYDVQQDEyBBbnRocm9waWMgQ2xhdWRlIENvbnRlbnQgU2lnbmluZzBZMBMGByqGSM49AgEGCCqGSM49AwEHA0IABJh6CmvLUBgFFNU0vUKlOVtE6djd17L5SuwX0LemFisBM3dkd/3cyjxFA3Qo5S46fX0/ihY0VZ7mfb9KF703t5OjWDBWMA4GA1UdDwEB/wQEAwIHgDAVBgNVHSUEDjAMBgorBgEEAYPoXgIBMAwGA1UdEwEB/wQCMAAwHwYDVR0jBBgwFoAUzlHiBIFOZFsj+OPEz5o+nMHXXMIwCgYIKoZIzj0EAwMDZwAwZAIwMXMdFJ4BetLLVY7ORuE9noqbbAZOZn/aArXyTwFAZfKrPzxF2vPoJNf1+UCdg1XGAjBwX1zd9WGqYkqmL5SFqw1QySjr1zJfpJM9+1rdDwSPLMOPOjKuiXjoU/pUUeG9RwmhY3BhZFkNngAAAAAAAAAAAAAAAAAAAAAAAAAAAAAAAAAAAAAAAAAAAAAAAAAAAAAAAAAAAAAAAAAAAAAAAAAAAAAAAAAAAAAAAAAAAAAAAAAAAAAAAAAAAAAAAAAAAAAAAAAAAAAAAAAAAAAAAAAAAAAAAAAAAAAAAAAAAAAAAAAAAAAAAAAAAAAAAAAAAAAAAAAAAAAAAAAAAAAAAAAAAAAAAAAAAAAAAAAAAAAAAAAAAAAAAAAAAAAAAAAAAAAAAAAAAAAAAAAAAAAAAAAAAAAAAAAAAAAAAAAAAAAAAAAAAAAAAAAAAAAAAAAAAAAAAAAAAAAAAAAAAAAAAAAAAAAAAAAAAAAAAAAAAAAAAAAAAAAAAAAAAAAAAAAAAAAAAAAAAAAAAAAAAAAAAAAAAAAAAAAAAAAAAAAAAAAAAAAAAAAAAAAAAAAAAAAAAAAAAAAAAAAAAAAAAAAAAAAAAAAAAAAAAAAAAAAAAAAAAAAAAAAAAAAAAAAAAAAAAAAAAAAAAAAAAAAAAAAAAAAAAAAAAAAAAAAAAAAAAAAAAAAAAAAAAAAAAAAAAAAAAAAAAAAAAAAAAAAAAAAAAAAAAAAAAAAAAAAAAAAAAAAAAAAAAAAAAAAAAAAAAAAAAAAAAAAAAAAAAAAAAAAAAAAAAAAAAAAAAAAAAAAAAAAAAAAAAAAAAAAAAAAAAAAAAAAAAAAAAAAAAAAAAAAAAAAAAAAAAAAAAAAAAAAAAAAAAAAAAAAAAAAAAAAAAAAAAAAAAAAAAAAAAAAAAAAAAAAAAAAAAAAAAAAAAAAAAAAAAAAAAAAAAAAAAAAAAAAAAAAAAAAAAAAAAAAAAAAAAAAAAAAAAAAAAAAAAAAAAAAAAAAAAAAAAAAAAAAAAAAAAAAAAAAAAAAAAAAAAAAAAAAAAAAAAAAAAAAAAAAAAAAAAAAAAAAAAAAAAAAAAAAAAAAAAAAAAAAAAAAAAAAAAAAAAAAAAAAAAAAAAAAAAAAAAAAAAAAAAAAAAAAAAAAAAAAAAAAAAAAAAAAAAAAAAAAAAAAAAAAAAAAAAAAAAAAAAAAAAAAAAAAAAAAAAAAAAAAAAAAAAAAAAAAAAAAAAAAAAAAAAAAAAAAAAAAAAAAAAAAAAAAAAAAAAAAAAAAAAAAAAAAAAAAAAAAAAAAAAAAAAAAAAAAAAAAAAAAAAAAAAAAAAAAAAAAAAAAAAAAAAAAAAAAAAAAAAAAAAAAAAAAAAAAAAAAAAAAAAAAAAAAAAAAAAAAAAAAAAAAAAAAAAAAAAAAAAAAAAAAAAAAAAAAAAAAAAAAAAAAAAAAAAAAAAAAAAAAAAAAAAAAAAAAAAAAAAAAAAAAAAAAAAAAAAAAAAAAAAAAAAAAAAAAAAAAAAAAAAAAAAAAAAAAAAAAAAAAAAAAAAAAAAAAAAAAAAAAAAAAAAAAAAAAAAAAAAAAAAAAAAAAAAAAAAAAAAAAAAAAAAAAAAAAAAAAAAAAAAAAAAAAAAAAAAAAAAAAAAAAAAAAAAAAAAAAAAAAAAAAAAAAAAAAAAAAAAAAAAAAAAAAAAAAAAAAAAAAAAAAAAAAAAAAAAAAAAAAAAAAAAAAAAAAAAAAAAAAAAAAAAAAAAAAAAAAAAAAAAAAAAAAAAAAAAAAAAAAAAAAAAAAAAAAAAAAAAAAAAAAAAAAAAAAAAAAAAAAAAAAAAAAAAAAAAAAAAAAAAAAAAAAAAAAAAAAAAAAAAAAAAAAAAAAAAAAAAAAAAAAAAAAAAAAAAAAAAAAAAAAAAAAAAAAAAAAAAAAAAAAAAAAAAAAAAAAAAAAAAAAAAAAAAAAAAAAAAAAAAAAAAAAAAAAAAAAAAAAAAAAAAAAAAAAAAAAAAAAAAAAAAAAAAAAAAAAAAAAAAAAAAAAAAAAAAAAAAAAAAAAAAAAAAAAAAAAAAAAAAAAAAAAAAAAAAAAAAAAAAAAAAAAAAAAAAAAAAAAAAAAAAAAAAAAAAAAAAAAAAAAAAAAAAAAAAAAAAAAAAAAAAAAAAAAAAAAAAAAAAAAAAAAAAAAAAAAAAAAAAAAAAAAAAAAAAAAAAAAAAAAAAAAAAAAAAAAAAAAAAAAAAAAAAAAAAAAAAAAAAAAAAAAAAAAAAAAAAAAAAAAAAAAAAAAAAAAAAAAAAAAAAAAAAAAAAAAAAAAAAAAAAAAAAAAAAAAAAAAAAAAAAAAAAAAAAAAAAAAAAAAAAAAAAAAAAAAAAAAAAAAAAAAAAAAAAAAAAAAAAAAAAAAAAAAAAAAAAAAAAAAAAAAAAAAAAAAAAAAAAAAAAAAAAAAAAAAAAAAAAAAAAAAAAAAAAAAAAAAAAAAAAAAAAAAAAAAAAAAAAAAAAAAAAAAAAAAAAAAAAAAAAAAAAAAAAAAAAAAAAAAAAAAAAAAAAAAAAAAAAAAAAAAAAAAAAAAAAAAAAAAAAAAAAAAAAAAAAAAAAAAAAAAAAAAAAAAAAAAAAAAAAAAAAAAAAAAAAAAAAAAAAAAAAAAAAAAAAAAAAAAAAAAAAAAAAAAAAAAAAAAAAAAAAAAAAAAAAAAAAAAAAAAAAAAAAAAAAAAAAAAAAAAAAAAAAAAAAAAAAAAAAAAAAAAAAAAAAAAAAAAAAAAAAAAAAAAAAAAAAAAAAAAAAAAAAAAAAAAAAAAAAAAAAAAAAAAAAAAAAAAAAAAAAAAAAAAAAAAAAAAAAAAAAAAAAAAAAAAAAAAAAAAAAAAAAAAAAAAAAAAAAAAAAAAAAAAAAAAAAAAAAAAAAAAAAAAAAAAAAAAAAAAAAAAAAAAAAAAAAAAAAAAAAAAAAAAAAAAAAAAAAAAAAAAAAAAAAAAAAAAAAAAAAAAAAAAAAAAAAAAAAAAAAAAAAAAAAAAAAAAAAAAAAAAAAAAAAAAAAAAAAAAAAAAAAAAAAAAAAAAAAAAAAAAAAAAAAAAAAAAAAAAAAAAAAAAAAAAAAAAAAAAAAAAAAAAAAAAAAAAAAAAAAAAAAAAAAAAAAAAAAAAAAAAAAAAAAAAAAAAAAAAAAAAAAAAAAAAAAAAAAAAAAAAAAAAAAAAAAAAAAAAAAAAAAAAAAAAAAAAAAAAAAAAAAAAAAAAAAAAAAAAAAAAAAAAAAAAAAAAAAAAAAAAAAAAAAAAAAAAAAAAAAAAAAAAAAAAAAAAAAAAAAAAAAAAAAAAAAAAAAAAAAAAAAAAAAAAAAAAAAAAAAAAAAAAAAAAAAAAAAAAAAAAAAAAAAAAAAAAAAAAAAAAAAAAAAAAAAAAAAAAAAAAAAAAAAAAAAAAAAAAAAAAAAAAAAAAAAAAAAAAAAAAAAAAAAAAAAAAAAAAAAAAAAAAAAAAAAAAAAAAAAAAAAAAAAAAAAAAAAAAAAAAAAAAAAAAAAAAAAAAAAAAAAAAAAAAAAAAAAAAAAAAAAAAAAAAAAAAAAAAAAAAAAAAAAAAAAAAAAAAAAAAAAAAAAAAAAAAAAAAAAAAAAAAAAAAAAAAAAAAAAAAAAAAAAAAAAAAAAAAAAAAAAAAAAAAAAAAAAAAAAAAAAAAAAAAAAAAAAAAAAAAAAAAAAAAAAAAAAAAAAAAAAAAAAAAAAAAAAAAAAAAAAAAAAAAAAAAAAAAAAAAAAAAAAAAAAAAAAAAAAAAAAAAAAAAAAAAAAAAAAAAAAAAAAAAAAAAAAAAAAAAAAAAAAAAAAAAAAAAAAAAAAAAAAAAAAAAAAAAAAAAAAAAAAAAAAAAAAAAAAAAAAAAAAAAAAAAAAAAAAAAAAAAAAAAAAAAAAAAAAAAAAAAAAAAAAAAAAAAAAAAAAAAAAAAAAAAAAAAAAAAAAAAAAAAAAAAAAAAAAAAAAAAAAAAAAAAAAAAAAAAAAAAAAAAAAAAAAAAAAAAAAAAAAAAAAAAAAAAAAAAAAAAAAAAAAAAAAAAAAAAAAAAAAAAAAAAAAAAAAAAAAAAAAAAAAAAAAAAAAAAAAAAAAAAAAAAAAAAAAAAAAAAAAAAAAAAAAAAAAAAAAAAAAAAAAAAAAAAAAAAAAAAAAAAAAAAAAAAAAAAAAAAAAAAAAAAAAAAAAAAAAAAAAAAAAAAAAAAAAAAAAAAAAAAAAAAAAAAAAAAAAAAAAAAAAAAAAAAAAAAAAAAAAAAAAAAAAAAAAAAAAAAAAAAAAAAAAAAAAAAAAAAAAAAAAAAAAAAAAAAAAAAAAAAAAAAAAAAAAAAAAAAAAAAAAAAAAAAAAAAAAAAAAAAAAAAAAAAAAAAAAAAAAAAAAAAAAAAAAAAAAAAAAAAAAAAAAAAAAAAAAAAAAAAAAAAAAAAAAAAAAAAAAAAAAAAAAAAAAAAAAAAAAAAAAAAAAAAAAAAAAAAAAAAAAAAAAAAAAAAAAAAAAAAAAAAAAAAAAAAAAAAAAAAAAAAAAAAAAAAAAAAAAAAAAAAAAAAAAAAAAAAAAAAAAAAAAAAAAAAAAAAAAAAAAAAAAAAAAAAAAAAAAAAAAAAAAAAAAAAAAAAAAAAAAAAAAAAAAAAAAAAAAAAAAAAAAAAAAAAAAAAAAAAAAAAAAAAAAAAAAAAAAAAAAAAAAAAAAAAAAAAAAAAAAAAAAAAAAAAAAAAAAAAAAAAAAAAAAAAAAAAAAAAAAAAAAAAAAAAAAAAAAAAAAAAAAAAAAAAAAAAAAAAAAAAAAAAAAAAAAAAAAAAAAAAAAAAAAPZYQDM9k9fBW/axefzwFGe5sKmvidalOeOc2FmuJQYaa/QVksMMISInFms5o8N5q/Z/S5zOmLnGcngtWxuJKOJEcSU=</c2pa:manifest></metadata>
  <defs>
    <style>
      .cls-1 {
        fill: #ee5300;
        stroke: #ee5300;
        stroke-miterlimit: 10;
      }
    </style>
  </defs>
  <path class="cls-1" d="M43.05,2.25l12.42,83.53h-22.2l-1.17-15.01h-7.77l-1.3,15.01H.57L11.65,2.25h31.39ZM31.53,55.96c-1.1-9.46-2.2-21.15-3.31-35.08-2.21,15.99-3.6,27.69-4.17,35.08h7.48Z"/>
  <path class="cls-1" d="M126.17,2.25v83.53h-18.99l-.03-56.39-7.56,56.39h-13.47l-7.97-55.1-.03,55.1h-18.99V2.25h28.11c.83,5.02,1.69,10.94,2.58,17.76l3.08,21.25,4.99-39h28.26Z"/>
  <path class="cls-1" d="M134.89,2.25h36.22v16.72h-14.5v15.84h13.57v15.89h-13.57v18.37h15.94v16.72h-37.66V2.25Z"/>
  <path class="cls-1" d="M178.8,2.25h15.37c10.25,0,17.19.4,20.82,1.19,3.63.79,6.59,2.81,8.87,6.06s3.43,8.44,3.43,15.56c0,6.5-.81,10.87-2.42,13.1-1.62,2.24-4.8,3.58-9.54,4.02,4.3,1.07,7.19,2.49,8.67,4.28,1.48,1.79,2.4,3.43,2.76,4.93s.54,5.62.54,12.36v22.03h-20.17v-27.76c0-4.47-.35-7.24-1.06-8.31-.71-1.07-2.55-1.6-5.55-1.6v37.66h-21.72V2.25ZM200.52,16.55v18.57c2.44,0,4.15-.34,5.13-1.01s1.47-2.85,1.47-6.53v-4.59c0-2.65-.47-4.39-1.42-5.21s-2.67-1.24-5.19-1.24Z"/>
  <path class="cls-1" d="M251.92,2.25v20.66h-17.83V2.25h17.83ZM251.92,30.84v129.93h-17.83V30.84h17.83Z"/>
  <path class="cls-1" d="M315.36,38.63h-21.72v-14.52c0-4.22-.23-6.86-.7-7.9s-1.49-1.57-3.07-1.57c-1.79,0-2.92.64-3.41,1.91-.48,1.27-.72,4.02-.72,8.25v38.8c0,4.06.24,6.71.72,7.95s1.56,1.86,3.25,1.86,2.67-.62,3.17-1.86c.5-1.24.75-4.15.75-8.74v-10.5h21.72v3.26c0,8.65-.61,14.78-1.83,18.39-1.22,3.62-3.92,6.79-8.1,9.51-4.18,2.72-9.33,4.08-15.45,4.08s-11.61-1.15-15.74-3.46-6.86-5.49-8.2-9.57c-1.34-4.08-2.01-10.21-2.01-18.39v-24.4c0-6.02.21-10.53.62-13.54.41-3.01,1.64-5.91,3.69-8.69,2.05-2.79,4.88-4.98,8.51-6.58,3.63-1.6,7.8-2.4,12.51-2.4,6.4,0,11.68,1.24,15.84,3.71,4.16,2.47,6.9,5.56,8.2,9.25,1.31,3.69,1.96,9.44,1.96,17.23v7.93Z"/>
  <path class="cls-1" d="M360.7,2.25l12.42,83.53h-22.2l-1.17-15.01h-7.77l-1.31,15.01h-22.46l11.08-83.53h31.39ZM349.19,55.96c-1.1-9.46-2.2-21.15-3.31-35.08-2.21,15.99-3.6,27.69-4.17,35.08h7.48Z"/>
  <path class="cls-1" d="M425.31,2.25v83.53h-19.04l-11.3-37.97v37.97h-18.16V2.25h18.16l12.18,37.61V2.25h18.16Z"/>
  <path class="cls-1" d="M4.59,97.12h17.07c5.39,0,9.48.4,12.25,1.19,2.77.8,5.02,2.41,6.72,4.83,1.71,2.42,2.56,6.33,2.56,11.72,0,3.64-.6,6.18-1.81,7.62-1.21,1.44-3.58,2.54-7.13,3.31,3.96.85,6.64,2.25,8.05,4.22,1.41,1.96,2.11,4.98,2.11,9.04v5.78c0,4.21-.51,7.33-1.52,9.36-1.02,2.03-2.64,3.42-4.86,4.16-2.22.75-6.77,1.12-13.66,1.12H4.59v-62.35ZM21.71,107.79v13.86c.73-.02,1.3-.04,1.71-.04,1.68,0,2.75-.39,3.21-1.17.46-.78.69-3.02.69-6.72,0-1.95-.19-3.32-.57-4.1-.38-.78-.87-1.28-1.48-1.48-.61-.21-1.79-.32-3.55-.35ZM21.71,131.35v17.44c2.41-.08,3.95-.44,4.61-1.08.66-.64,1-2.22,1-4.74v-5.81c0-2.67-.3-4.29-.89-4.85-.6-.56-2.17-.89-4.71-.96Z"/>
  <path class="cls-1" d="M50.56,97.12h12.11c8.07,0,13.54.3,16.4.89,2.86.59,5.19,2.1,6.99,4.53,1.8,2.43,2.7,6.3,2.7,11.61,0,4.85-.64,8.11-1.91,9.78-1.27,1.67-3.78,2.67-7.52,3,3.39.8,5.66,1.86,6.83,3.2,1.17,1.33,1.89,2.56,2.17,3.68.28,1.12.43,4.19.43,9.22v16.44h-15.89v-20.72c0-3.34-.28-5.4-.83-6.2-.56-.8-2.01-1.19-4.37-1.19v28.11h-17.11v-62.35ZM67.67,107.79v13.86c1.93,0,3.27-.25,4.04-.75.77-.5,1.16-2.12,1.16-4.87v-3.43c0-1.98-.37-3.27-1.12-3.89-.75-.62-2.11-.92-4.09-.92Z"/>
  <path class="cls-1" d="M124.96,97.12l9.78,62.35h-17.49l-.92-11.21h-6.12l-1.03,11.21h-17.69l8.73-62.35h24.73ZM115.9,137.21c-.87-7.06-1.74-15.79-2.61-26.19-1.74,11.94-2.84,20.67-3.28,26.19h5.89Z"/>
  <path class="cls-1" d="M175.86,97.12v62.35h-15l-8.9-28.34v28.34h-14.31v-62.35h14.31l9.59,28.07v-28.07h14.31Z"/>
  <path class="cls-1" d="M182.72,97.12h12.8c8.26,0,13.85.36,16.76,1.08,2.91.72,5.13,1.9,6.65,3.54,1.52,1.64,2.46,3.47,2.84,5.49s.57,5.97.57,11.88v21.83c0,5.6-.28,9.34-.83,11.23-.55,1.89-1.52,3.36-2.9,4.43-1.38,1.07-3.09,1.81-5.12,2.23-2.03.42-5.09.64-9.18.64h-21.58v-62.35ZM199.83,107.79v41.01c2.47,0,3.98-.47,4.55-1.41.57-.94.85-3.48.85-7.64v-24.22c0-2.82-.1-4.63-.28-5.43-.19-.8-.62-1.38-1.3-1.75-.68-.37-1.95-.56-3.82-.56Z"/>
  <path class="cls-1" d="M298.9,124.27h-17.11v-10.84c0-3.15-.18-5.12-.55-5.9-.37-.78-1.17-1.17-2.42-1.17-1.41,0-2.3.48-2.68,1.42-.38.95-.57,3-.57,6.16v28.96c0,3.03.19,5.01.57,5.93.38.92,1.23,1.39,2.56,1.39s2.11-.46,2.5-1.39c.39-.93.59-3.1.59-6.52v-7.84h17.11v2.43c0,6.45-.48,11.03-1.44,13.73-.96,2.7-3.09,5.06-6.38,7.1-3.29,2.03-7.35,3.05-12.17,3.05s-9.14-.86-12.4-2.58c-3.25-1.72-5.41-4.1-6.46-7.14-1.06-3.04-1.59-7.62-1.59-13.73v-18.21c0-4.49.16-7.86.49-10.11s1.29-4.41,2.91-6.49c1.61-2.08,3.85-3.72,6.7-4.91,2.86-1.19,6.14-1.79,9.86-1.79,5.04,0,9.2.92,12.48,2.77,3.28,1.85,5.43,4.15,6.46,6.9,1.03,2.76,1.55,7.04,1.55,12.86v5.92Z"/>
  <path class="cls-1" d="M344.13,133.63c0,6.26-.16,10.7-.47,13.3-.31,2.61-1.29,4.99-2.93,7.14s-3.85,3.81-6.64,4.97c-2.79,1.16-6.04,1.73-9.75,1.73s-6.69-.55-9.49-1.64c-2.8-1.09-5.06-2.73-6.77-4.91-1.71-2.18-2.72-4.56-3.05-7.12-.33-2.57-.49-7.06-.49-13.48v-10.67c0-6.26.16-10.7.47-13.31.31-2.61,1.29-4.99,2.93-7.14,1.64-2.16,3.85-3.81,6.65-4.97,2.79-1.16,6.04-1.73,9.75-1.73,3.52,0,6.68.55,9.49,1.64,2.8,1.09,5.06,2.73,6.77,4.91,1.71,2.18,2.72,4.56,3.05,7.12.33,2.57.49,7.06.49,13.48v10.67ZM327.02,113.14c0-2.9-.17-4.76-.51-5.56-.34-.81-1.04-1.21-2.09-1.21-.89,0-1.58.33-2.05.98-.47.66-.71,2.59-.71,5.8v29.11c0,3.62.16,5.85.47,6.7s1.04,1.27,2.17,1.27,1.91-.49,2.23-1.46c.33-.98.49-3.3.49-6.97v-28.65Z"/>
  <path class="cls-1" d="M350.51,97.12h12.8c8.26,0,13.85.36,16.76,1.08,2.91.72,5.13,1.9,6.65,3.54,1.52,1.64,2.46,3.47,2.84,5.49.38,2.02.57,5.97.57,11.88v21.83c0,5.6-.28,9.34-.83,11.23-.55,1.89-1.52,3.36-2.9,4.43-1.38,1.07-3.09,1.81-5.12,2.23-2.03.42-5.09.64-9.18.64h-21.58v-62.35ZM369.21,108.34c-.68.37-1.11.96-1.3,1.75-.19.8-.28,2.61-.28,5.43v24.22c0,4.16.28,6.71.85,7.64.57.94,2.09,1.41,4.55,1.41v-41.01c-1.87,0-3.14.19-3.82.56Z"/>
  <path class="cls-1" d="M396.52,97.12h28.53v12.48h-11.42v11.82h10.69s0,11.86,0,11.86h-10.69v13.71s12.56,0,12.56,0v12.48h-29.67v-62.35Z"/>
</svg>